<svg width="128" height="21" viewBox="0 0 128 21" fill="none" xmlns="http://www.w3.org/2000/svg">
<g clip-path="url(#clip0_2795_386)">
<path d="M5.37522 0H0V20.1439H5.37522V0Z" fill="#D90012"/>
<path d="M39.7506 2.61719L34.7534 16.1344L29.7563 2.61719H23.8359C23.8359 2.61719 27.4731 12.6613 28.2879 14.8536C29.7006 18.5377 30.6238 20.516 33.5547 20.516C36.1603 20.516 36.8138 18.9656 38.335 14.8536C39.2582 12.2891 42.8426 2.61719 42.8426 2.61719H39.7476H39.7506Z" fill="#D90012"/>
<path d="M15.7458 2.24512C10.6959 2.24512 6.89453 5.18478 6.89453 10.3666V20.144H12.2698V9.56644C12.2698 6.73521 13.4099 4.91807 15.7458 4.91807C18.0817 4.91807 19.2218 6.73521 19.2218 9.56644V20.144H24.597V10.3666C24.597 5.18478 20.7957 2.24512 15.7458 2.24512Z" fill="#D90012"/>
<path d="M56.5852 11.3806C56.5852 14.9592 54.7388 17.8462 51.7522 17.8462C48.7656 17.8462 46.8635 14.9622 46.8635 11.3806C46.8635 7.79912 48.6543 4.91514 51.5881 4.91514C53.5957 4.91514 54.9 6.14318 55.6591 8.12152L49.0353 11.1667L50.1197 13.4645L61.1456 8.38823C59.7887 4.80963 56.0401 2.29787 51.6965 2.24512C46.0487 2.29787 41.4883 6.35713 41.4883 11.3806C41.4883 16.4042 46.0487 20.5162 51.7522 20.5162C57.4557 20.5162 61.9604 16.4569 61.9604 11.3806H56.5852Z" fill="#D90012"/>
<path d="M127.999 4.91514V2.24512H124.254C118.064 2.24512 112.902 5.8794 112.902 11.3806C112.902 16.8819 118.064 20.5162 124.254 20.5162H127.999V17.8462H125.446C121.047 17.8462 118.494 15.7095 118.494 11.3806C118.494 7.05175 121.047 4.91514 125.446 4.91514H127.999Z" fill="#D90012"/>
<path d="M87.8137 13.5172V5.29022H93.1889V2.61727H87.8137V0H82.3828V13.8366C82.3828 17.8432 84.1765 20.2465 89.6074 20.2465H93.1919V17.6292H92.1602C88.5758 17.6292 87.8167 16.8818 87.8167 13.5143L87.8137 13.5172Z" fill="#D90012"/>
<path d="M72.0133 2.24512C66.9634 2.24512 63.2148 5.18478 63.2148 10.3666V20.144H68.5901V9.56644C68.5901 6.73521 69.7302 4.91807 72.0104 4.91807C74.2906 4.91807 75.4835 6.73521 75.4835 9.56644V20.144H80.8587V10.3666C80.8587 5.18478 77.113 2.24512 72.0075 2.24512H72.0133Z" fill="#D90012"/>
<path d="M106.766 11.3806C106.766 14.9592 104.919 17.8462 101.88 17.8462C98.8408 17.8462 97.0471 14.9622 97.0471 11.3806C97.0471 7.79912 98.8408 4.91514 101.772 4.91514C103.727 4.91514 105.031 6.14318 105.846 8.12152L99.1661 11.1667L100.253 13.4645L111.332 8.38823C109.919 4.80963 106.227 2.29787 101.827 2.24512C96.1796 2.29787 91.6719 6.35713 91.6719 11.3806C91.6719 16.4042 96.2352 20.5162 101.883 20.5162C107.531 20.5162 112.147 16.4569 112.147 11.3806H106.769H106.766Z" fill="#D90012"/>
</g>
<defs>
<clipPath id="clip0_2795_386">
<rect width="128" height="20.5161" fill="white"/>
</clipPath>
</defs>
</svg>
